<!-- icon666.com - MILLIONS OF FREE VECTOR ICONS --><svg viewBox="0 0 464 464" xmlns="http://www.w3.org/2000/svg"><path d="m443.886719 274.160156c2.800781-14.160156 20.113281-27.199218 20.113281-42.160156s-17.3125-28-20.113281-42.160156c-2.878907-14.566406 8.066406-33.238282 2.503906-46.648438-5.65625-13.597656-26.65625-19.070312-34.765625-31.199218-8.113281-12.128907-5.21875-33.6875-15.570312-44.046876-10.351563-10.359374-31.832032-7.386718-44.054688-15.570312s-17.601562-29.109375-31.199219-34.765625c-13.402343-5.5625-32.082031 5.382813-46.648437 2.503906-14.152344-2.800781-27.191406-20.113281-42.152344-20.113281s-28 17.3125-42.160156 20.113281c-14.566406 2.878907-33.238282-8.066406-46.648438-2.503906-13.597656 5.65625-19.070312 26.65625-31.199218 34.765625-12.128907 8.113281-33.6875 5.21875-44.046876 15.570312-10.359374 10.351563-7.386718 31.832032-15.570312 44.054688s-29.109375 17.601562-34.765625 31.199219c-5.5625 13.410156 5.382813 32.089843 2.503906 46.65625-2.800781 14.144531-20.113281 27.183593-20.113281 42.144531s17.3125 28 20.113281 42.160156c2.878907 14.566406-8.066406 33.238282-2.503906 46.648438 5.65625 13.597656 26.65625 19.070312 34.765625 31.199218 8.113281 12.128907 5.21875 33.6875 15.570312 44.046876 10.351563 10.359374 31.832032 7.394531 44.046876 15.578124 12.214843 8.183594 17.601562 29.109376 31.199218 34.765626 13.402344 5.601562 32.082032-5.382813 46.648438-2.503907 14.160156 2.792969 27.199218 20.105469 42.160156 20.105469v-48c-87.78125.003906-163.34375-62.003906-180.46875-148.097656-17.128906-86.09375 28.941406-172.296875 110.042969-205.894532 81.097656-33.59375 174.632812-5.222656 223.40625 67.761719 48.769531 72.988281 39.191406 170.261719-22.875 232.335938l33.941406 33.941406c10.351563-10.398437 7.394531-31.824219 15.578125-44.039063 8.183594-12.214843 29.109375-17.601562 34.765625-31.199218 5.5625-13.402344-5.382813-32.082032-2.503906-46.648438zm0 0" fill="#d3843d" style="fill: rgb(155, 98, 49);"></path><path d="m362.105469 362.105469c62.066406-62.074219 71.644531-159.347657 22.875-232.335938-48.773438-72.984375-142.308594-101.355469-223.40625-67.761719-81.101563 33.597657-127.171875 119.800782-110.042969 205.894532 17.125 86.09375 92.6875 148.101562 180.46875 148.097656v-184zm0 0" fill="#fdbd40" style="fill: rgb(255, 211, 122);"></path><path d="m288 288c0 13.984375-16 13.984375-16 28s16 13.984375 16 28-16 14.007812-16 28 16 14.007812 16 28c0 0 0 16-56 16v-184zm0 0" fill="#995f5b" style="fill: rgb(244, 195, 195);"></path><g fill="#d3843d"><path d="m232 160c-4.417969 0-8-3.582031-8-8v-56c0-4.417969 3.582031-8 8-8s8 3.582031 8 8v56c0 4.417969-3.582031 8-8 8zm0 0" fill="#d3843d" style="fill: rgb(155, 98, 49);"></path><path d="m152 240h-56c-4.417969 0-8-3.582031-8-8s3.582031-8 8-8h56c4.417969 0 8 3.582031 8 8s-3.582031 8-8 8zm0 0" fill="#d3843d" style="fill: rgb(155, 98, 49);"></path><path d="m200 208c-2.121094 0-4.15625-.84375-5.65625-2.34375l-40-40c-3.03125-3.140625-2.988281-8.128906.097656-11.214844 3.085938-3.085937 8.074219-3.128906 11.214844-.097656l40 40c2.285156 2.289062 2.972656 5.730469 1.734375 8.71875s-4.15625 4.9375-7.390625 4.9375zm0 0" fill="#d3843d" style="fill: rgb(155, 98, 49);"></path><path d="m264 208c-3.234375 0-6.152344-1.949219-7.390625-4.9375s-.550781-6.429688 1.734375-8.71875l40-40c3.140625-3.03125 8.128906-2.988281 11.214844.097656 3.085937 3.085938 3.128906 8.074219.097656 11.214844l-40 40c-1.5 1.5-3.535156 2.34375-5.65625 2.34375zm0 0" fill="#d3843d" style="fill: rgb(155, 98, 49);"></path><path d="m160 312c-3.234375 0-6.152344-1.949219-7.390625-4.9375s-.550781-6.429688 1.734375-8.71875l40-40c3.140625-3.03125 8.128906-2.988281 11.214844.097656 3.085937 3.085938 3.128906 8.074219.097656 11.214844l-40 40c-1.5 1.5-3.535156 2.34375-5.65625 2.34375zm0 0" fill="#d3843d" style="fill: rgb(155, 98, 49);"></path><path d="m368 240h-56c-4.417969 0-8-3.582031-8-8s3.582031-8 8-8h56c4.417969 0 8 3.582031 8 8s-3.582031 8-8 8zm0 0" fill="#d3843d" style="fill: rgb(155, 98, 49);"></path><path d="m168 377.910156c-1.164062 0-2.3125-.253906-3.367188-.742187-32.820312-15.308594-59.515624-41.242188-75.777343-73.601563-1.988281-3.949218-.398438-8.761718 3.550781-10.75 3.953125-1.988281 8.765625-.398437 10.753906 3.550782 14.632813 29.144531 38.664063 52.5 68.214844 66.289062 3.40625 1.582031 5.253906 5.316406 4.441406 8.984375-.808594 3.667969-4.0625 6.273437-7.816406 6.269531zm0 0" fill="#d3843d" style="fill: rgb(155, 98, 49);"></path><path d="m312 408h16v16h-16zm0 0" fill="#d3843d" style="fill: rgb(155, 98, 49);"></path><path d="m328 376h16v16h-16zm0 0" fill="#d3843d" style="fill: rgb(155, 98, 49);"></path></g></svg>