<!-- icon666.com - MILLIONS OF FREE VECTOR ICONS --><svg viewBox="0 -70 468.95292 468" xmlns="http://www.w3.org/2000/svg"><path d="m460.898438 195.207031c.023437 48.878907-28.402344 93.296875-72.796876 113.75-44.394531 20.453125-96.628906 13.195313-133.765624-18.585937 21.992187-16.011719 39.375-37.535156 50.402343-62.402344 17.363281-38.722656 18.109375-82.871094 2.0625-122.15625-.671875-1.730469-1.390625-3.414062-2.160156-5.09375-3.574219-7.980469-7.820313-15.648438-12.683594-22.917969 38.453125-14.265625 81.453125-8.820312 115.132813 14.585938 33.679687 23.40625 53.777344 61.804687 53.816406 102.820312zm0 0" fill="#f9db5f" style="fill: rgb(255, 215, 56);"></path><path d="m335.617188 69.96875c-4.363282.011719-8.722657.246094-13.058594.707031 63.699218 6.742188 112.042968 60.472657 112.042968 124.53125 0 64.058594-48.34375 117.789063-112.042968 124.53125 46.054687 4.847657 91.027344-16.117187 116.925781-54.511719 25.894531-38.394531 28.492187-87.945312 6.742187-128.832031-21.746093-40.886719-64.28125-66.4375-110.59375-66.425781zm0 0" fill="#f9ef8b"></path><path d="m337.25 100.714844c-4.707031-10.523438-10.558594-20.496094-17.457031-29.730469-9.519531 1.191406-18.867188 3.472656-27.863281 6.796875 4.863281 7.269531 9.105468 14.933594 12.679687 22.917969.765625 1.679687 1.488281 3.363281 2.160156 5.089843 21.25 52.488282 12.445313 112.363282-23.011719 156.507813-8.523437 10.625-18.425781 20.058594-29.449218 28.054687 4.742187 4.0625 9.777344 7.761719 15.070312 11.070313 71.59375-38.890625 101.167969-126.347656 67.871094-200.707031zm0 0" fill="#f9b347"></path><path d="m336.289062 123.679688c.007813 10.820312-8.546874 19.714843-19.359374 20.128906-1.75-13.046875-5.15625-25.820313-10.136719-38 2.867187-1.527344 6.070312-2.320313 9.320312-2.304688 11.144531-.003906 20.175781 9.03125 20.175781 20.175782zm0 0" fill="#9f371f"></path><path d="m317.214844 246.039062c0 13.222657-10.714844 23.941407-23.9375 23.941407-4.007813-.003907-7.949219-1.023438-11.457032-2.964844 10.035157-12.4375 18.390626-26.140625 24.851563-40.757813 6.597656 4.421876 10.554687 11.839844 10.542969 19.78125zm0 0" fill="#9f371f"></path><path d="m423.679688 224.5c0 11.132812-9.023438 20.160156-20.160157 20.160156-11.132812 0-20.160156-9.027344-20.160156-20.160156 0-11.136719 9.027344-20.160156 20.160156-20.160156 11.136719 0 20.160157 9.023437 20.160157 20.160156zm0 0" fill="#ad4f3d"></path><path d="m226.046875 306.796875c-44.613281 19.953125-96 17.84375-138.832031-5.699219-42.828125-23.539062-72.148438-65.792968-79.214844-114.15625 23.273438-.441406 44.15625-14.402344 53.464844-35.738281 3.304687-7.523437 5.003906-15.65625 4.984375-23.871094 0-.960937-.046875-1.875-.097657-2.835937 2.148438-2.285156 4.707032-4.140625 7.542969-5.476563 3.503907-.519531 6.960938-1.339843 10.324219-2.449219 20.621094-6.492187 37.226562-21.925781 45.207031-42.015624 7.984375-20.089844 6.5-42.707032-4.035156-61.585938 78.324219-19.046875 158.257813 24.734375 184.382813 100.992188 26.125 76.257812-10.171876 159.855468-83.726563 192.835937zm0 0" fill="#f9db5f" style="fill: rgb(255, 215, 56);"></path><path d="m304.632812 100.714844c-27.335937-61.046875-90.5625-97.851563-157.144531-91.480469 80.03125 7.597656 141.167969 74.792969 141.199219 155.183594.03125 80.386719-61.054688 147.628906-141.078125 155.289062 55.242187 5.242188 109.109375-19.273437 141.445313-64.371093 32.335937-45.097657 38.269531-103.980469 15.578124-154.621094zm0 0" fill="#f9ef8b"></path><path d="m56.605469 228.207031c-5.898438-13.128906-9.9375-27.019531-12-41.265625 32.457031-.644531 58.441406-27.132812 58.460937-59.597656 0-.960938-.050781-1.875-.097656-2.835938 2.148438-2.28125 4.707031-4.140624 7.539062-5.476562 3.507813-.519531 6.960938-1.339844 10.328126-2.449219 20.621093-6.492187 37.222656-21.925781 45.207031-42.015625s6.5-42.707031-4.039063-61.582031c6.125-1.496094 12.339844-2.609375 18.601563-3.34375-18.453125-2.207031-37.148438-1.074219-55.199219 3.34375 10.542969 18.875 12.03125 41.492187 4.046875 61.585937s-24.589844 35.523438-45.214844 42.011719c-3.367187 1.109375-6.824219 1.929688-10.328125 2.449219-2.835937 1.328125-5.394531 3.175781-7.546875 5.449219.050781.957031.097657 1.871093.097657 2.835937.015624 8.21875-1.6875 16.351563-4.996094 23.875-9.304688 21.339844-30.1875 35.304688-53.464844 35.75 12.234375 83.652344 88.847656 142.355469 172.800781 132.402344-54.566406-6.371094-101.75-40.996094-124.195312-91.136719zm0 0" fill="#f9b347"></path><path d="m256.585938 95.648438c5.664062 12.652343 0 27.5-12.648438 33.164062s-27.496094 0-33.160156-12.648438c-5.664063-12.648437-.003906-27.496093 12.644531-33.160156 12.652344-5.664062 27.5-.003906 33.164063 12.644532zm0 0" fill="#ad4f3d"></path><path d="m94.902344 164.605469c-6.078125 2.722656-12.984375 2.914062-19.203125.535156s-11.234375-7.132813-13.941407-13.214844l-.289062-.71875c3.304688-7.527343 5-15.65625 4.980469-23.875 0-.960937-.046875-1.875-.097657-2.835937 2.148438-2.285156 4.707032-4.140625 7.542969-5.476563 3.503907-.519531 6.960938-1.339843 10.324219-2.449219 11.929688-.199218 22.351562 8.019532 24.9375 19.667969 2.585938 11.644531-3.378906 23.5-14.273438 28.367188zm0 0" fill="#ad4f3d"></path><path d="m61.753906 151.925781c4.582032 10.269531 15.445313 16.234375 26.570313 14.585938 9.503906-10.839844 14.742187-24.765625 14.734375-39.179688 0-.949219-.050782-1.847656-.097656-2.800781-4.847657-5.171875-11.644532-8.0625-18.726563-7.964844-3.367187 1.109375-6.824219 1.929688-10.328125 2.449219-2.835938 1.332031-5.394531 3.183594-7.542969 5.464844.050781.957031.097657 1.871093.097657 2.835937.015624 8.21875-1.6875 16.351563-4.996094 23.875zm0 0" fill="#9f371f"></path><path d="m186.488281 246.257812c5.664063 12.648438 0 27.496094-12.648437 33.160157-12.648438 5.664062-27.496094.003906-33.160156-12.644531-5.667969-12.652344-.003907-27.496094 12.644531-33.164063 12.652343-5.664063 27.496093 0 33.164062 12.648437zm0 0" fill="#ad4f3d"></path><g fill="#16131b"><path d="m433.164062 104.417969c-4.117187-4.425781-8.527343-8.566407-13.199218-12.398438-3.425782-2.796875-8.46875-2.289062-11.265625 1.136719-2.796875 3.421875-2.285157 8.464844 1.136719 11.261719 4.121093 3.367187 8.003906 7.011719 11.632812 10.90625 3.011719 3.230469 8.074219 3.410156 11.308594.398437 3.230468-3.011718 3.410156-8.074218.398437-11.308594zm0 0" fill="#16131b"></path><path d="m403.519531 252.65625c15.550781 0 28.160157-12.601562 28.164063-28.152344.003906-15.550781-12.597656-28.164062-28.148438-28.167968-15.550781-.007813-28.160156 12.59375-28.171875 28.144531.007813 15.550781 12.605469 28.15625 28.15625 28.175781zm0-40.316406c6.71875 0 12.160157 5.441406 12.160157 12.160156 0 6.714844-5.441407 12.160156-12.160157 12.160156-6.714843 0-12.160156-5.445312-12.160156-12.160156.007813-6.714844 5.449219-12.15625 12.160156-12.160156zm0 0" fill="#16131b"></path><path d="m389.019531 159.648438 15.132813-15.132813c3.03125-3.140625 2.988281-8.128906-.097656-11.214844-3.085938-3.085937-8.074219-3.128906-11.214844-.097656l-15.132813 15.132813c-2.078125 2.007812-2.910156 4.980468-2.179687 7.777343.730468 2.796875 2.917968 4.984375 5.714844 5.714844 2.796874.730469 5.769531-.101563 7.777343-2.179687zm0 0" fill="#16131b"></path><path d="m349.402344 237.011719c-4.226563 1.296875-6.597656 5.773437-5.296875 10l6.289062 20.449219c1.296875 4.226562 5.773438 6.597656 10 5.296874 4.222657-1.296874 6.59375-5.773437 5.292969-10l-6.285156-20.449218c-1.300782-4.226563-5.777344-6.597656-10-5.296875zm0 0" fill="#16131b"></path><path d="m42.875 251.796875c-1.75-2.398437-3.453125-4.890625-5.066406-7.40625-1.527344-2.4375-4.246094-3.867187-7.121094-3.746094-2.871094.121094-5.460938 1.777344-6.773438 4.335938-1.316406 2.558593-1.15625 5.625.417969 8.035156 1.785157 2.800781 3.671875 5.550781 5.601563 8.214844 1.675781 2.328125 4.472656 3.574219 7.324218 3.273437 2.855469-.300781 5.328126-2.105468 6.484376-4.730468s.816406-5.667969-.886719-7.976563zm0 0" fill="#16131b"></path><path d="m12.707031 231.484375c1.136719 2.65625 3.621094 4.496094 6.496094 4.808594 2.875.308593 5.695313-.953125 7.375-3.308594s1.957031-5.433594.726563-8.050781c-4.429688-9.871094-7.761719-20.199219-9.9375-30.800782 18.152343-2.886718 34.351562-13.023437 44.890624-28.082031 8.925782 8.234375 21.644532 10.914063 33.136719 6.980469 11.488281-3.933594 19.898438-13.847656 21.90625-25.824219 2.007813-11.976562-2.707031-24.089843-12.285156-31.554687 12.65625-7.941406 22.851563-19.253906 29.433594-32.664063l12.824219 5.804688c2.609374 1.21875 5.671874.9375 8.019531-.730469 2.34375-1.667969 3.613281-4.472656 3.320312-7.335938-.296875-2.863281-2.109375-5.351562-4.746093-6.507812l-13.882813-6.285156c4.214844-16.320313 3.152344-33.5625-3.035156-49.242188 57.566406-10.082031 115.667969 14.726563 148.199219 63.277344.054687.09375.089843.199219.148437.289062 4.613281 6.90625 8.640625 14.1875 12.039063 21.765626.800781 1.816406 1.554687 3.644531 2.289062 5.472656.882812 2.1875 1.695312 4.398437 2.476562 6.644531.203126.585937.433594 1.167969.632813 1.757813.859375 2.570312 1.628906 5.171874 2.347656 7.792968.320313 1.171875.585938 2.351563.878907 3.53125.371093 1.507813.730468 3.015625 1.054687 4.535156.300781 1.40625.574219 2.8125.828125 4.226563.230469 1.242187.429688 2.492187.625 3.738281.238281 1.558594.488281 3.117188.675781 4.675782.199219 1.628906.335938 3.261718.484375 4.886718.234375 2.652344.398438 5.300782.492188 7.945313.035156 1.003906.070312 2 .085937 3.007812.03125 1.925781.027344 3.847657-.023437 5.769531 0 .578126-.046875 1.160157-.070313 1.738282-.242187 6.597656-.921875 13.171875-2.039062 19.675781-.054688.304687-.109375.605469-.164063.910156-1.179687 6.570313-2.800781 13.054688-4.847656 19.410157-.152344.476562-.308594.949218-.46875 1.425781-2.128906 6.390625-4.6875 12.636719-7.660156 18.683593l-.226563.460938c-4.101562 8.261719-8.96875 16.128906-14.53125 23.488281-.234375.3125-.46875.625-.703125.933594-1.214844 1.585937-2.464844 3.144531-3.753906 4.679687-.488281.589844-.992188 1.164063-1.492188 1.746094-2.710937 3.140625-5.542968 6.199219-8.527343 9.121094-.082031.082031-.160157.167969-.242188.25-1.136719 1.109375-2.324219 2.175781-3.503906 3.246094-1.023437.933594-2.046875 1.863281-3.101563 2.761718-.96875.835938-1.945312 1.65625-2.9375 2.46875-1.890624 1.535157-3.800781 3.039063-5.761718 4.476563-59.652344 44.085937-142.734375 37.15625-194.257813-16.207031-1.988281-2.058594-4.921875-2.902344-7.695312-2.210938-2.777344.691406-4.972657 2.8125-5.757813 5.5625-.789062 2.75-.046875 5.710938 1.941406 7.765625 55.230469 57.277344 143.640626 66.558594 209.558594 22 51.019532 39.710938 123.191406 37.046875 171.148438-6.316406 47.957031-43.363281 57.847656-114.902344 23.453125-169.652344-2.351563-3.742187-7.289063-4.867187-11.03125-2.515625-3.738281 2.351563-4.867188 7.292969-2.515625 11.03125 29.824218 47.464844 21.863281 109.40625-19 147.78125-40.859375 38.378906-103.175782 42.449219-148.679688 9.710938.863282-.71875 1.691406-1.484375 2.542969-2.21875.484375-.421875.96875-.835938 1.445313-1.265625 1.691406-1.5 3.351562-3.039063 4.980468-4.617188l.59375-.578125c1.800782-1.757812 3.558594-3.554687 5.273438-5.398437l.132812-.140625.164063-.191406c3.464843 1.285156 7.132812 1.949218 10.828125 1.957031 13.039062.035156 24.78125-7.878907 29.644531-19.980469 4.859375-12.097656 1.859375-25.9375-7.578125-34.933594.875-2.28125 1.671875-4.578125 2.445312-6.886718.167969-.503907.332032-1.003907.492188-1.507813 2.265625-7.015625 4.058594-14.175781 5.359375-21.429687.070313-.398438.148437-.800782.214844-1.199219.402343-2.335938.769531-4.671875 1.070312-7.019531.65625.875 1.484375 1.605468 2.433594 2.144531l18.609375 10.566406c3.84375 2.183594 8.726562.835937 10.910156-3.003906 2.183594-3.84375.835938-8.730469-3.007812-10.910157l-18.621094-10.570312c-3.015625-1.691406-6.777344-1.257812-9.324219 1.078125.070313-1.203125.097657-2.402344.144531-3.601563.03125-.824218.078126-1.648437.097657-2.476562.046875-2.023438.058593-4.046875.023437-6.074219 0-1.292969-.0625-2.589843-.109375-3.886719-.089843-2.359374-.214843-4.71875-.402343-7.078124-.027344-.332032-.0625-.667969-.09375-1 13.894531-4.824219 21.726562-19.539063 17.96875-33.761719-3.761719-14.21875-17.839844-23.144531-32.304688-20.46875-.9375-2.042969-1.90625-4.0625-2.914062-6.046875-.160157-.3125-.332032-.613282-.492188-.925782-1.113281-2.15625-2.269531-4.277343-3.46875-6.363281-.070312-.128906-.136719-.265625-.210938-.402343 30.4375-8.441407 62.992188-4.285157 90.332032 11.53125 3.816406 2.160156 8.65625.847656 10.855468-2.941407 2.203126-3.789062.949219-8.644531-2.816406-10.890625-32.566406-18.863281-71.585937-23.105468-107.445312-11.679687-39.023438-53.992188-106.886719-78.941407-171.589844-63.078125-2.425781.59375-4.4375 2.289062-5.433594 4.582031-.996094 2.289063-.863281 4.917969.359375 7.097656 9.382813 16.789063 10.699219 36.917969 3.582031 54.789063-7.117187 17.867187-21.910156 31.578125-40.269531 37.316406-2.9375.972656-5.949219 1.6875-9.003906 2.140625-.785156.117187-1.542969.347656-2.257813.6875-3.742187 1.765625-7.121093 4.21875-9.953124 7.238281-1.480469 1.59375-2.253907 3.722656-2.144532 5.894532.042969.800781.085938 1.601562.085938 2.402343.019531 7.117188-1.457032 14.160157-4.328125 20.671875-8.074219 18.457032-26.140625 30.535156-46.28125 30.941406-2.292969.042969-4.457031 1.066407-5.945313 2.8125-1.488281 1.746094-2.15625 4.050782-1.8281248 6.320313 2.1757808 14.984375 6.4257808 29.59375 12.6249998 43.40625zm283.058594 30.300781c4.652344-6.640625 8.875-13.570312 12.644531-20.75 1.46875 4.441406.914063 9.304688-1.519531 13.300782-2.4375 3.996093-6.503906 6.722656-11.125 7.449218zm32.523437-138.105468c.015626 3.875-1.820312 7.523437-4.945312 9.820312-.03125-.160156-.078125-.316406-.105469-.480469-.164062-.832031-.367187-1.652343-.542969-2.480469-.375-1.769531-.796874-3.53125-1.230468-5.296874-.308594-1.242188-.59375-2.492188-.929688-3.726563-.78125-2.882813-1.644531-5.753906-2.589844-8.617187-.101562-.304688-.207031-.609376-.3125-.910157-.042968-.136719-.074218-.273437-.125-.402343 6.140626.71875 10.769532 5.914062 10.78125 12.09375zm-251.882812 3.042968c1.640625-.277344 3.253906-.617187 4.863281-1.003906.578125-.140625 1.152344-.316406 1.722657-.472656.800781-.21875 1.625-.398438 2.433593-.664063 7.929688.347657 14.578125 6.101563 16.058594 13.902344 1.480469 7.796875-2.597656 15.589844-9.847656 18.816406-7.734375 3.449219-16.828125.730469-21.398438-6.398437.203125-.539063.34375-1.09375.53125-1.640625.265625-.785157.523438-1.574219.769531-2.367188.402344-1.277343.730469-2.5625 1.039063-3.859375.1875-.800781.398437-1.554687.539063-2.34375.285156-1.414062.496093-2.839844.691406-4.277344.09375-.679687.210937-1.351562.285156-2.035156.21875-2.121094.359375-4.257812.378906-6.398437.617188-.460938 1.261719-.882813 1.933594-1.257813zm0 0" fill="#16131b"></path><path d="m226.691406 90.300781c2.65625-1.136719 4.492188-3.617187 4.804688-6.488281.3125-2.875-.953125-5.691406-3.300782-7.371094-2.351562-1.679687-5.425781-1.960937-8.042968-.738281-13.917969 6.238281-21.773438 21.179687-19.015625 36.183594 2.757812 15 15.414062 26.175781 30.640625 27.050781 15.230468.878906 29.085937-8.765625 33.550781-23.351562 4.460937-14.582032-1.621094-30.332032-14.730469-38.128907-2.464844-1.589843-5.601562-1.703125-8.171875-.300781-2.574219 1.40625-4.175781 4.105469-4.167969 7.035156.003907 2.933594 1.613282 5.628906 4.191407 7.023438 6.769531 4.03125 9.910156 12.167968 7.601562 19.703125-2.308593 7.535156-9.472656 12.515625-17.339843 12.0625-7.867188-.457031-14.40625-6.230469-15.828126-13.984375-1.425781-7.75 2.632813-15.472656 9.824219-18.695313zm0 0" fill="#16131b"></path><path d="m156.597656 240.910156c3.953125-1.851562 5.695313-6.53125 3.910156-10.515625-1.785156-3.988281-6.4375-5.804687-10.449218-4.082031-16.683594 7.46875-24.148438 27.050781-16.675782 43.730469 7.46875 16.679687 27.046876 24.148437 43.730469 16.679687 16.679688-7.472656 24.148438-27.050781 16.679688-43.730468-1.851563-3.957032-6.53125-5.699219-10.515625-3.914063-3.988282 1.785156-5.804688 6.4375-4.085938 10.453125 3.863282 8.617188.003906 18.738281-8.613281 22.597656-8.621094 3.859375-18.738281 0-22.597656-8.617187-3.859375-8.621094 0-18.738281 8.621093-22.597657zm0 0" fill="#16131b"></path><path d="m261.1875 199.746094-24.890625-9.492188c-2.683594-1.070312-5.734375-.617187-7.984375 1.195313-2.253906 1.8125-3.351562 4.695312-2.878906 7.542969.472656 2.851562 2.449218 5.226562 5.164062 6.210937l24.890625 9.492187c4.105469 1.488282 8.648438-.589843 10.203125-4.671874 1.558594-4.078126-.449218-8.65625-4.503906-10.277344zm0 0" fill="#16131b"></path><path d="m99.566406 231.519531 20.039063-17.554687c3.324219-2.910156 3.65625-7.964844.746093-11.289063-2.914062-3.324219-7.96875-3.65625-11.289062-.746093l-20.042969 17.554687c-3.324219 2.910156-3.65625 7.964844-.746093 11.289063 2.914062 3.324218 7.96875 3.65625 11.292968.746093zm0 0" fill="#16131b"></path><path d="m174.636719 186.441406c4.121093-.003906 7.5625-3.136718 7.953125-7.238281l2.535156-26.519531c.328125-4.34375-2.878906-8.152344-7.214844-8.566406-4.335937-.414063-8.207031 2.714843-8.710937 7.042968l-2.535157 26.519532c-.417968 4.394531 2.804688 8.300781 7.199219 8.722656.261719.027344.515625.039062.773438.039062zm0 0" fill="#16131b"></path></g></svg>