<!-- icon666.com - MILLIONS OF FREE VECTOR ICONS --><svg viewBox="-65 0 512 512.16245" xmlns="http://www.w3.org/2000/svg"><path d="m358.78125 173.460938-1.101562-27-.097657-2.296876-1.101562-26.601562-38.898438-1.199219c-.402343 0-.800781 0-1.101562 0-2.097657 0-3.597657.199219-4.5 1.097657-1.097657.902343-1.5 2.5-1.699219 5.800781l-1.300781 19.800781-2.097657 32.699219-1.5 23.300781 55.5 1.699219zm0 0" fill="#af7979"></path><path d="m333.082031 334.960938v-.5c0-5.199219-.300781-9.597657-2.699219-11.597657-2.101562-1.699219-6.203124-2.402343-14.601562-2.402343h-2.101562c-1.898438 0-3.597657 0-4.898438-.097657-17.800781-1.402343-35.601562-2.601562-53-3.402343-20-1-40.5-1.699219-60.800781-2.097657-.800781 0-1.5 0-2.300781 0-6 0-12.699219.597657-16.796876 4.800781-4 4.097657-4.5 10.5-4.800781 17.296876l-3.402343 94 22.402343-.699219-.902343-3.597657c-.199219-.601562-.296876-1.203124-.398438-1.703124-1.800781-11.296876 5.300781-19.699219 13.101562-23 2.898438-1.296876 5.898438-1.898438 8.898438-1.898438 6.300781 0 12 2.898438 16.101562 8 3.699219 4.699219 5.296876 11.300781 4.097657 17.398438l-.597657 3.5h11.398438l-.898438-3.699219c-1.703124-6.699219-1.902343-14.300781-.5-20.5 2.699219-12.097657 11-22.5 22.199219-27.800781 3.898438 8.101562 7.898438 16.5 9.800781 25.601562 1.699219 8.101562 1.296876 15.898438-1.203124 22.398438l-1.5 4 22.601562.601562-1.199219-4c-4.199219-13.699219-3.402343-28.5 2.300781-41.800781 2.296876-5.300781 4-7.597657 6.398438-8.300781.5-.097657 1-.199219 1.398438-.199219 1.902343 0 4.203124 1 7.101562 3 5.300781 3.699219 9.398438 9.800781 11.199219 16.800781 2.601562 10.300781.800781 21.398438-.597657 30.300781l-.601562 3.398438 16.300781.5 4.300781 1.5-5.601562-92.699219c-.199219-1.101562-.199219-2.101562-.199219-3.101562zm0 0" fill="#5b5d6d"></path><path d="m71.179688 355.363281c-2.898438 0-7 .300781-8.597657 3.199219-.800781 1.5-.902343 3.5-.902343 5.300781l-1.398438 140.199219 3.101562-.101562c7-.199219 14-.398438 20.898438-.699219 14.898438-.5 28.398438-.898438 42.101562-1.199219l3.097657-.101562-.097657-3.097657c-2-45.5-.703124-91.601562 3.796876-136.800781l.300781-3.101562-59.800781-3.597657c-.898438 0-1.699219 0-2.5 0zm0 0" fill="#5b5d6d"></path><path d="m371.582031 206.363281c-2.402343-2.199219-6.199219-2.5-10.199219-2.601562l-86.300781-3.097657-.902343 1.699219c-12.097657 24.597657-36.597657 42.800781-63.898438 47.597657-4.898438.902343-9.898438 1.300781-14.898438 1.300781-23.101562 0-45.5-8.898438-61.300781-24.398438-5.902343-5.699219-10.902343-12.402343-14.800781-19.902343l-.898438-1.796876-2 .199219c-9.101562.800781-18.402343 1.097657-29.5 1.097657-8.800781 0-17.402343-.199219-25.703124-.398438h-.199219c-8.300781-.199219-16.898438-.398438-25.597657-.398438-9.300781 0-17.601562.296876-25.203124.796876l-2.796876.203124v2.796876c.199219 19.800781.398438 40 .597657 60.402343v3l366-1.902343.800781-52.097657c.101562-4.800781-.101562-9.699219-3.199219-12.5zm0 0" fill="#cbe580"></path><path d="m8.082031 291.0625c.199219 18.398438.300781 36.898438.5 55.199219l.097657 9.699219c.402343 44.902343.800781 97 1.300781 146.101562v3h3c11.800781 0 24.601562-.300781 40.402343-.699219l2.898438-.101562 1.398438-140.398438c0-2.199219.101562-4.902343 1.402343-7.300781 2-3.5 6-5.199219 12-5.199219 1.097657 0 2.097657.097657 2.898438.097657l61.902343 3.703124c.597657 0 1.097657.296876 1.398438.699219.398438.398438.5 1 .5 1.5-5 46.898438-6.398438 94.5-4.300781 141.597657l.101562 2.902343h2.898438c8.601562-.101562 16.402343-.199219 23.800781-.199219 8.5 0 16.398438.097657 24 .296876 31.601562.800781 63.300781 1 94 1.300781 29 .199219 58.898438.5 88.898438 1.199219l3 .101562 3.5-216.398438-365.597657-.203124zm154.898438 158.800781 4.101562-113.199219c.199219-5.703124.5-14.402343 5.898438-20 5.101562-5.300781 12.902343-6 19.800781-6h2.101562.199219c20.097657.296876 40.597657 1 61 2.097657 17.597657.902343 35.5 2.101562 53.097657 3.402343 1.203124.097657 2.800781.097657 4.5.097657h2c7 0 13.601562.300781 17.402343 3.300781 4.097657 3.398438 4.097657 9.699219 4.199219 14.800781 0 1 0 2.199219.101562 3.097657l6.597657 108.601562c.300781 5 .902343 14.398438-4.898438 19.800781-4.199219 4-10.402343 4.5-15.402343 4.5-.699219 0-1.398438 0-2.097657 0l-143.699219-2.199219c-2.800781 0-6.300781-.101562-9.203124-1.902343-6.199219-3.699219-5.898438-12.300781-5.699219-16.398438zm-106.199219-139.402343c4.5-3.199219 10.898438-3.5 15.601562-3.597657 5.898438-.199219 11.796876-.5 17.5-.902343 8.199219-.5 17.5-1 26.5-1 2 0 3.898438 0 5.699219.101562 6.699219.199219 14.699219 5 18.5 11.101562 2.597657 4.199219 3 8.699219 1.199219 12.699219-3.398438 7.300781-13.398438 8.199219-20.699219 8.199219h-48.5c-4.199219 0-9.5 0-13.902343-2.300781-4.296876-2.300781-7.296876-6.800781-7.597657-11.597657-.402343-5 1.800781-9.902343 5.699219-12.703124zm0 0" fill="#cbe580"></path><path d="m8.082031 287.960938 365.597657.101562.300781-17.101562-366 1.902343zm0 0" fill="#94c668"></path><path d="m122.179688 304.960938c-1.796876-.097657-3.796876-.097657-5.796876-.097657-8.800781 0-17.800781.5-26.402343 1-5.800781.300781-11.699219.699219-17.597657.898438-4.902343.199219-11 .402343-15.5 3.601562-3.902343 2.800781-6.203124 7.699219-5.800781 12.597657.398438 4.800781 3.398438 9.300781 7.597657 11.601562 4.402343 2.300781 9.601562 2.300781 13.902343 2.300781h48.5c7.300781 0 17.300781-.800781 20.699219-8.199219 1.898438-4.101562 1.5-8.402343-1.199219-12.703124-3.800781-6-11.699219-10.796876-18.402343-11zm0 0" fill="#94c668"></path><path d="m341.582031 2.164062c-.5 0-1 0-1.601562 0-10.398438.597657-20.199219 7.398438-25.097657 17.296876-4.5 9.203124-4.703124 20.800781-.402343 30.902343.699219 1.597657 1.402343 3.199219 2.199219 4.800781l.101562.199219c2.800781 5.800781 5.699219 11.800781 4 17.800781-.898438 3-2.601562 5.296876-4.5 7.898438-1.199219 1.601562-2.601562 3.398438-3.601562 5.300781-2.296876 4.5-2.296876 9.898438-.199219 15.097657 2.101562 5.101562 6.101562 8.902343 10.902343 10.5l.699219.402343c4.300781.097657 8 .597657 12.199219 1.398438 4.898438 1 7.101562-4.5 8.601562-8.300781 5.5-13.699219 11.398438-27.296876 15.597657-41.5 4.300781-14.398438 5.699219-28.597657 5.5-43.5-.199219-10.898438-14.800781-18.296876-24.398438-18.296876zm0 0" fill="#fff"></path><path d="m338.882812 431.5625-.300781-4.398438-4 1.898438-13.199219-.398438-2.902343-.703124-.699219 2.902343c-.5 2-1.101562 3.800781-1.800781 5.199219-1.800781 3.601562-4.597657 6-7.800781 6.601562-.597657.097657-1.199219.199219-1.796876.199219-2.703124 0-5.601562-1.199219-7.902343-3.300781-2.699219-2.5-4.398438-5.898438-5.5-8.5l-.800781-1.800781-20.199219-.5-2.300781-.898438-1.398438 2c-3.199219 4.800781-9.199219 10.199219-14.800781 10.597657-.199219 0-.398438 0-.597657 0-2.5 0-4.703124-1.097657-6.402343-3.296876-1.5-1.902343-2.800781-4.101562-3.898438-6.601562l-.800781-1.800781h-8.699219l-2.601562-1-1.199219 2.5c-.300781.601562-.601562 1.300781-1 2-3.800781 6.300781-11.101562 10.402343-18.601562 10.402343-1.296876 0-2.597657-.101562-3.796876-.402343-6-1.097657-11.703124-5.398438-14.800781-11.097657l-1.5-2.800781-2.699219 1.699219-19.203124.601562-.699219 19.199219c-.199219 4.800781.101562 10.597657 3.699219 12.898438 2 1.199219 4.800781 1.300781 7.101562 1.300781l143.699219 2.199219h1.5c4.902343 0 9.902343-.398438 13-3.398438 4.101562-3.800781 4-10.601562 3.601562-16.601562zm0 0" fill="#bfc7d8"></path><g fill="#f7b36f"><path d="m306.382812 442.863281c-2.703124 0-5.601562-1.199219-7.902343-3.300781-2.199219-2-3.898438-4.699219-5.597657-8.800781-6.203124-14.699219-6-32.398438.296876-47.300781 1.902343-4.398438 3.703124-7.5 6.402343-8.296876.398438-.101562.898438-.203124 1.398438-.203124 1.902343 0 4.199219 1 7.101562 3 5.300781 3.703124 9.398438 9.800781 11.199219 16.800781 2.601562 10.300781.800781 21.402343-.800781 31.101562-.5 3.300781-1.097657 7-2.699219 10.199219-1.800781 3.5-4.699219 6-7.800781 6.601562-.398438.097657-1 .199219-1.597657.199219zm1.898438-28.402343-7.300781 2.101562 7.300781-2.101562v-3zm-8.898438-13.097657 6.796876-1.601562s-6.796876 1.601562-6.796876 1.601562zm0 0"></path><path d="m195.382812 247.261719c-22 0-43.300781-8.5-58.402343-23.300781-12.898438-12.597657-21.300781-30.296876-23.097657-48.5l-.703124-6.796876 5.5 4.097657c1 .699219 2 1.300781 3.101562 1.699219 1.300781.5 2.601562.703124 4 .703124 3.300781 0 6.398438-1.203124 8.601562-3.402343 2-2 3.296876-4.398438 4.5-7.097657.699219-1.5 1.398438-2.800781 2.097657-4 1.699219-2.703124 4.902343-5.902343 8.601562-5.902343.699219 0 1.300781.101562 2 .300781 2.398438.898438 4 3.101562 5.5 5.199219.300781.5.597657.902343.898438 1.300781 1.101562 1.5 2.402343 2.699219 3.699219 3.398438l1.601562.902343-.101562 1.898438c-.296876 6.902343 1.703124 13.902343 5.902343 20.199219 6.800781 10.300781 19.300781 16.601562 32.699219 16.601562 4.898438 0 9.699219-.898438 14.101562-2.601562 10.898438-4.296876 19.699219-14 22.796876-25.199219l.902343-3.398438 3.199219 1.398438c1.398438.601562 2.898438.902343 4.300781.902343h.300781c4-.101562 7.699219-2.203124 10.5-4.101562.796876-.5 1.5-1 2.199219-1.5 2.5-1.699219 4.800781-3.300781 7.597657-4.398438 1.902343-.703124 3.800781-1.101562 5.601562-1.101562.800781 0 1.699219.101562 2.5.300781l2.398438.5v2.398438c-.097657 8.699219-1.5 17-4.296876 24.800781-9.703124 27.300781-35 48.199219-64.300781 53.300781-4.601562 1-9.402343 1.398438-14.199219 1.398438zm0 0"></path><path d="m252.980469 440.5625c-2.5 0-4.699219-1.101562-6.398438-3.300781-6.902343-8.800781-8.300781-23.097657-6.199219-32.699219 2.398438-10.800781 9.597657-20.601562 19.199219-26.300781l2.800781-1.699219 1.398438 3c3.199219 6.699219 6.699219 14.601562 8.398438 22.699219 2.101562 10 .902343 19.5-3.199219 26.699219-3.097657 5.402343-9.699219 11.101562-15.398438 11.601562-.199219 0-.402343 0-.601562 0zm5.902343-44.5c-3.101562 8-4.5 16.699219-4.203124 25.199219 0 0 0 0-.097657 0h.097657c-.296876-8.5 1.101562-17.199219 4.203124-25.199219zm0 0"></path><path d="m209.679688 442.761719c-1.296876 0-2.597657-.097657-3.796876-.398438-8.5-1.601562-15.703124-9.101562-17-17.601562-1.902343-12 5.898438-19.898438 13-23 2.796876-1.199219 5.898438-1.800781 8.898438-1.800781 6.398438 0 12.101562 2.800781 16.101562 8 5.296876 6.800781 5.898438 17.101562 1.5 24.5-3.902343 6.300781-11.203124 10.300781-18.703124 10.300781zm-6.796876-25.699219 4.597657 11.601562zm12.898438-5.199219 3.699219 11-3.699219-11v-3zm0 0"></path></g><path d="m255.78125 112.164062c-13.398438-12.902343-33.898438-20.300781-56.300781-20.300781-24.699219 0-48.699219 9.097657-64.097657 24.300781-10 9.796876-17.101562 22.5-20.101562 35.597657-.800781 3.699219-1.398438 7.5-1.601562 11.402343v.5l.203124.597657c.5 4.5 3.699219 8.601562 8 10.101562 1.296876.5 2.597657.699219 4 .699219 3.296876 0 6.398438-1.199219 8.597657-3.398438 2.101562-2 3.300781-4.601562 4.601562-7.101562l.097657-.101562c.601562-1.296876 1.300781-2.597657 2-3.796876 1.703124-2.703124 4.902343-5.902343 8.601562-5.902343.699219 0 1.398438.101562 2.101562.402343 2.5.796876 3.898438 3 5.5 5.296876.296876.402343.597657.902343.898438 1.300781.300781.402343.601562.800781 1 1.199219l3.699219 4 1.402343-5.296876c1.097657-4.101562 2.898438-7.902343 5.597657-11.5 7.699219-10.300781 20.199219-16.5 33.300781-16.5 3.898438 0 7.800781.597657 11.5 1.699219 13.101562 4 23.199219 15.300781 25.101562 28.199219.398438 2.5.398438 5.101562.097657 7.699219l-.199219 1.699219 1.300781 1c1.699219 1.300781 3.898438 2 6.199219 2h.398438c4-.097657 7.703124-2.296876 10.5-4.097657.703124-.5 1.5-1 2.203124-1.5 2.398438-1.601562 4.796876-3.300781 7.5-4.402343 1.898438-.796876 3.796876-1.097657 5.597657-1.097657.402343 0 .902343 0 1.300781.097657l3.601562.402343-.300781-3.601562c-1.402343-19.300781-9.5-37.300781-22.300781-49.597657zm0 0" fill="#c67045"></path><path d="m376.28125 201.0625c-2.898438-2.601562-6.300781-3.601562-9.5-4l-3.300781-81.699219c-.097657-2.601562-2.199219-4.699219-4.898438-4.800781-2.800781-.101562-5.601562-.199219-8.402343-.398438.902343-5.703124 3.402343-11.402343 6.101562-17.402343.699219-1.5 1.300781-3 2-4.5 6.898438-16.097657 10.800781-33.097657 11.601562-50.597657.296876-6.703124.199219-14.402343-3.203124-21.402343-5.296876-11-18.296876-17.699219-31-16-11.5 1.5-22.199219 9.800781-27.398438 21-4.398438 9.601562-4.800781 20.800781-1.101562 30.601562 1 2.800781 2.402343 5.398438 3.601562 7.898438 2.300781 4.5 4.398438 8.699219 4.398438 12.902343 0 3.796876-1.699219 7.699219-3.5 11.796876-.796876 1.800781-1.597657 3.703124-2.296876 5.601562-2.300781 6.101562-3 14.398438.796876 20.5-4.5 1.898438-6.796876 6.199219-7.097657 12.199219l-4.5 71.699219-17.601562-.597657c10.101562-29.902343 1.800781-65.402343-20.398438-86.699219-15.902343-15.300781-39.902343-23.402343-65.800781-22.203124-25.199219 1.203124-48.699219 10.703124-64.5 26.203124-10.898438 10.796876-18.800781 24.597657-22.101562 39.097657-3.597657 15.902343-2.097657 32.902343 3.800781 48.402343-17.398438 1.296876-34.398438.796876-50.898438.398438-18.101562-.5-36.902343-1-56.402343.800781-2.597657.199219-4.5976568 2.398438-4.5976568 5.097657.4999998 49 .8984378 100.902343 1.3007808 151.101562.398438 50.199219.898438 102.199219 1.296876 151.101562 0 2.796876 2.300781 5 5 5h.300781c25.402343 0 51.300781-.902343 76.199219-1.703124 32.703124-1.097657 66.601562-2.199219 99.5-1.398438 31.601562.800781 63.402343 1.101562 94.101562 1.300781 30.699219.300781 62.398438.5 93.898438 1.300781 1.402343.097657 2.601562-.5 3.601562-1.402343 1-.898438 1.5-2.199219 1.5-3.5l4.601562-287.597657c.597657-4.601562.699219-12.902343-5.101562-18.101562zm-365.398438 73.898438 359.5-.097657c-.101562 3.5-.203124 7-.300781 10.5l-145.800781 1.199219c-69.898438.601562-142.199219 1.199219-213.199219-2.398438-.101562-3-.101562-6.101562-.199219-9.203124zm306.699219-249.5c3.699219-8.199219 11.398438-14.199219 19.597657-15.296876 8.402343-1.101562 17.203124 3.398438 20.601562 10.398438 2.398438 4.898438 2.398438 11.101562 2.199219 16.5-.800781 16.300781-4.398438 32.199219-10.800781 47.199219-.597657 1.402343-1.296876 2.902343-1.898438 4.300781-3 6.699219-6 13.5-7 21-6.101562-.300781-12.300781-.5-18.398438-.5-.300781-1.101562-.902343-2-1.800781-2.699219-3.101562-2.300781-2.800781-8.300781-1.101562-12.902343.601562-1.597657 1.300781-3.296876 2.101562-5 2.199219-4.898438 4.398438-10 4.398438-15.898438 0-6.601562-2.800781-12.101562-5.5-17.398438-1.199219-2.402343-2.300781-4.601562-3.199219-6.902343-2.800781-7.097657-2.5-15.699219.800781-22.800781zm-7 153.300781c0-.097657 0-.300781 0-.398438.597657-8.402343.300781-16.902343.800781-25.300781.597657-9.898438 1.199219-19.800781 1.898438-29.699219.199219-2.699219.5-3.5.699219-3.699219.199219-.203124 1-.402343 3.601562-.300781 0 0 36.097657 1.097657 36.097657 1.097657.300781 8.203124.5 16.402343.800781 24.703124.101562 1.898438 2 51.296876 2.300781 51.398438l-47.898438-1.699219c.199219-5.5 1.199219-10.800781 1.699219-16.101562zm-36.101562-.597657c-.597657 4.597657-1.800781 9.199219-3.398438 13.597657-9.402343 26.300781-33.699219 46.402343-62 51.300781-25.300781 4.398438-52.199219-3.699219-70.101562-21.199219-9-8.800781-15.699219-20-19.300781-32.101562-1.097657-3.597657-1.597657-7.398438-2-11.199219 2.101562.699219 4.402343 1.101562 6.800781 1.101562.800781 0 1.601562 0 2.5-.101562 5.800781-.699219 11.5-3.601562 16.199219-8.199219.902343-.902343 1.703124-1.699219 2.402343-2.601562 1.898438-2.097657 3.699219-4 5.597657-4.699219 1.800781-.601562 4.101562 0 5.300781 1.5.199219.199219.402343.5.601562.699219.699219 1 1.898438 2.5 3.5 3.5.097657 6.902343 2.199219 13.800781 6.300781 20 7.5 11.402343 21.296876 18 35.199219 18 5.199219 0 10.300781-.898438 15.199219-2.800781 11-4.296876 19.898438-13.597657 23.800781-24.597657 2.898438 1.199219 6 1.800781 9.199219 1.800781 3.800781 0 7.5-.902343 10.898438-2.601562 2.300781-1.199219 4.203124-2.699219 6.101562-4.101562 1.5-1.199219 2.898438-2.296876 4.398438-3.097657 1-.5 2-.902343 3-1.199219-.097657 2.199219.101562 4.597657-.199219 7zm-99-24c8.300781-11.101562 23.902343-16.300781 37.199219-12.300781 10.402343 3.199219 18.703124 12.398438 20.203124 22.5 1.796876 12.398438-6.703124 26-19.402343 31-13.699219 5.398438-30.597657.398438-38.300781-11.300781-6.597657-9.898438-6.5-20.800781.300781-29.898438zm-57.300781-1.703124c2.902343-12.597657 9.703124-24.699219 19.300781-34.097657 15.800781-15.601562 39.199219-23.5 62-23.5 20.5 0 40.601562 6.398438 54.199219 19.5 7.800781 7.5 13.601562 17 17.203124 27.199219 2.199219 6.199219 3.199219 12.601562 3.5 19.101562-2.703124.5-5.300781 1.398438-7.703124 2.699219-2.097657 1.199219-4 2.597657-5.699219 3.898438-1.597657 1.199219-3.097657 2.402343-4.597657 3.199219-4 2.101562-9.402343 1.902343-13.300781-.398438.097657-2.398438.097657-4.699219-.300781-7.101562-2.101562-14-13-26.296876-27.199219-30.597657-17.402343-5.300781-37.199219 1.199219-48.101562 15.898438-2.199219 2.902343-3.800781 6-5 9.199219-3.898438-3.398438-9.597657-4.597657-14.597657-2.898438-4.300781 1.5-7.203124 4.699219-9.703124 7.5-.699219.800781-1.398438 1.5-2.097657 2.199219-3.101562 3.101562-6.699219 5-10.199219 5.402343-3.601562.398438-7.203124-.902343-9.203124-3.300781-.097657-4.800781.402343-9.402343 1.5-13.902343zm-107.796876 57c17.398438-1.199219 34.296876-.796876 50.597657-.398438 17.902343.5 36.300781.898438 55.601562-.699219 4 7.597657 9.199219 14.597657 15.398438 20.699219 16.601562 16.199219 39.902343 25.300781 63.402343 25.300781 5.097657 0 10.296876-.402343 15.398438-1.300781 28.601562-5 53.699219-23.898438 66.101562-49.199219l84.296876 3c3.402343.097657 6.703124.398438 8.300781 1.898438 2.101562 1.902343 2.300781 6.300781 2.199219 10.199219-.199219 15.402343-.699219 30.703124-1.097657 46.101562l-360 .101562c0-1.203124 0-2.402343-.101562-3.601562.101562-3.800781-1.597657-52-.097657-52.101562zm116 289.601562c-14.101562.300781-28.203124.800781-42.101562 1.199219-6.898438.199219-13.898438.5-20.898438.699219l1.296876-137c0-1.398438 0-3.097657.5-4 .5-.898438 2.402343-1.898438 8.300781-1.597657l56.699219 3.398438c-4.597657 45.601562-5.898438 91.699219-3.796876 137.300781zm243.898438-185.699219c-.398438 21.800781-.699219 43.597657-1.101562 65.398438-.398438 24.5-.796876 49.101562-1.199219 73.601562-.199219 15.300781-.5 30.699219-.699219 46v3.097657c-29.898438-.699219-59.898438-.898438-89-1.199219-30.699219-.300781-62.398438-.5-93.898438-1.300781-15.902343-.398438-31.902343-.296876-47.902343-.097657-2.097657-47-.597657-94.5 4.300781-141.199219.101562-1.402343-.300781-2.703124-1.199219-3.800781-.902343-1-2.199219-1.699219-3.5-1.800781l-61.902343-3.699219c-3.699219-.199219-13.398438-.800781-17.699219 6.597657-1.800781 3.101562-1.800781 6.402343-1.800781 8.800781l-1.296876 137.402343c-13.402343.398438-26.902343.699219-40.300781.699219-.5-47.5-.902343-97.601562-1.300781-146.101562 0-4.199219-.101562-8.5-.101562-12.699219-.097657-16.300781-.296876-32.601562-.398438-48.898438 44.101562 2.199219 88.699219 2.796876 132.800781 2.796876 27 0 53.898438-.199219 80.398438-.398438l145.699219-1.199219c0 6 .203124 12 .101562 18zm0 0"></path><path d="m340.179688 337.460938c0-.796876-.097657-1.898438-.097657-3 0-5.398438-.101562-12.796876-5.199219-17.097657-4.902343-4-13.101562-4-20.402343-4-2 0-3.800781 0-5.199219-.101562-17.699219-1.398438-35.5-2.597657-53.199219-3.5-20.199219-1-40.800781-1.699219-61.101562-2.097657-8.398438-.101562-17.800781.296876-24.300781 6.898438-6.199219 6.398438-6.597657 15.800781-6.796876 22l-4.101562 113.199219c-.199219 4.300781-.5 14.402343 7.101562 19.101562 3.597657 2.300781 7.796876 2.398438 10.796876 2.398438l143.703124 2.199219h2.097657c5.101562 0 12.300781-.5 17.402343-5.296876 6.796876-6.402343 6.199219-16.703124 5.898438-22.203124zm-168.898438 76c.199219-7 .601562-14 .800781-21 .699219-18.5 1.300781-37 2-55.5.199219-6.199219.699219-12 3.898438-15.296876 3.199219-3.300781 8.902343-3.902343 14.699219-3.902343h2.203124c20.199219.402343 40.597657 1 60.699219 2.101562 17.5.898438 35.300781 2 52.898438 3.398438 1.699219.101562 3.800781.101562 6 .101562 4.199219 0 11.902343 0 14 1.699219 1.5 1.300781 1.601562 6.300781 1.601562 9.398438 0 1.203124 0 2.402343.097657 3.5 1.101562 18.300781 2.203124 36.5 3.300781 54.800781.601562 10.300781 1.300781 20.5 1.902343 30.800781l-9.5.101562c1.796876-11.601562.597657-23.902343-3.402343-34.902343-1.398438-3.699219-3.699219-9.199219-8-13.398438-1.5-1.402343-6.898438-6-13.5-5.601562-5.199219.300781-8 4.5-9.898438 7.300781l-.5.699219c-4.402343 6.402343-7.300781 14.199219-8.5 23.300781-1.101562 8.199219-.601562 16.101562 1.398438 23.300781-2.398438 0-4.800781 0-7.199219-.199219.601562-2.101562 1-4.300781 1.199219-6.703124 1-8.898438-.300781-18.097657-3.699219-26.699219l-.101562-.199219c-2.796876-7-6.398438-14.601562-12.699219-16.398438-2.097657-.601562-5.398438-.703124-9 2-4.097657 3.097657-7.597657 7.398438-10.300781 12.5-3.5 6.5-5.398438 14.199219-5.796876 22.898438 0 1-.101562 2.101562-.101562 3.300781-.199219-.800781-.398438-1.601562-.601562-2.402343-2.898438-9.5-11.5-16.699219-21.296876-18-12.800781-1.699219-25.601562 7.203124-29.203124 20.203124-1 3.796876-1.199219 7.796876-.5 11.597657-4.199219.101562-8.398438-.097657-12.5-.5 0-5-.5-10.597657-.398438-12.300781zm120.800781-11.199219c1-7.5 3.199219-13.800781 6.699219-18.800781l.5-.699219c.601562-.898438 1.800781-2.597657 2.398438-3h.101562c1.601562 0 4 1.199219 5.800781 2.902343 2.199219 2.097657 3.898438 5.097657 5.5 9.5 3.898438 10.796876 4.597657 23 2.097657 34.199219-.898438 4.097657-2.097657 6.898438-3.699219 8.898438-1.699219 2.101562-4 3.402343-6 3.300781-3.5-.199219-6.597657-4.300781-7.699219-6.101562-5.199219-8-7.199219-18.796876-5.699219-30.199219zm-46.199219 9.601562c.296876-7.101562 1.898438-13.402343 4.597657-18.601562 2-3.800781 4.601562-7 7.5-9.199219.199219-.101562.300781-.199219.402343-.199219.898438.398438 2.699219 2.398438 5.898438 10.398438l.101562.199219c2.796876 7 3.898438 14.601562 3.097657 21.902343-.5 4.5-1.699219 8.300781-3.5 11.300781-2.097657 3.398438-5.199219 6-8.898438 7.5-1.199219.5-1.5.398438-1.601562.398438 0 0-.597657-.101562-1.800781-1.601562-5.296876-6.699219-6.097657-15.699219-5.796876-22.097657zm-24.601562 20.199219c-4.398438 4.199219-11.199219 5.699219-17 3.898438-2.601562-.796876-4.800781-2.199219-6.5-4-3.5-3.699219-4.800781-9.398438-3.300781-14.699219 2.300781-8.300781 10.300781-14 18.199219-13 5.902343.800781 11.203124 5.300781 13 11.101562 1.703124 5.597657-.097657 12.5-4.398438 16.699219zm112.800781 28.898438c-2.699219 2.5-7.601562 2.601562-12.5 2.5l-143.699219-2.199219c-1.902343 0-4.300781-.097657-5.601562-.898438-2.398438-1.5-2.5-6.601562-2.300781-10.300781.199219-4.898438.402343-9.699219.5-14.601562 4.101562.402343 8.101562.601562 12.199219.601562 1.703124 0 3.402343 0 5.203124-.101562.097657 0 .199219 0 .398438-.097657.699219 1 1.398438 1.898438 2.199219 2.699219 2.902343 3.101562 6.601562 5.398438 10.800781 6.699219 2.699219.902343 5.5 1.300781 8.199219 1.300781 6.902343 0 13.800781-2.601562 18.800781-7.5 1.800781-1.699219 3.300781-3.699219 4.601562-5.898438l7.097657.398438c1.101562 2.199219 2.402343 4.398438 4.101562 6.398438 2.5 3.101562 5.199219 4.800781 8.199219 5.203124.5.097657 1 .097657 1.398438.097657 2.101562 0 3.902343-.597657 5.203124-1.097657 5.296876-2.101562 9.898438-5.800781 13.097657-10.601562h.199219c3.5.398438 7 .5 10.5.5 1.5 0 3 0 4.5-.101562h.203124c.597657 1.300781 1.296876 2.5 2.097657 3.703124 4.199219 6.597657 9.800781 10.296876 15.601562 10.597657h.800781c5.097657 0 10.097657-2.597657 13.699219-7.097657 1.898438-2.402343 3.199219-5.203124 4.097657-7.703124l12.5-.097657c.300781 4.398438.5 8.699219.800781 13.097657.101562 5.601562.199219 11.601562-2.898438 14.5zm0 0"></path><path d="m136.679688 308.863281c-.398438-.300781-.898438-.601562-1.296876-.800781-4.203124-2.300781-8.601562-3-12.5-3.699219-11.601562-1.902343-22.902343-3.699219-34.402343-3.902343-12.800781-.199219-25.898438.5-34.898438 6.902343-7.101562 5.097657-8.800781 12.800781-7.300781 18.097657 1.101562 3.800781 3.800781 7.203124 7.601562 9.601562 3.199219 2 6.699219 3 9.699219 3.699219 10.5 2.402343 21 2.800781 32.800781 2.902343h3c8.398438 0 19.597657-.601562 30.597657-3.800781 3.402343-1 7.199219-2.402343 10.300781-5.402343s4.601562-6.898438 4.300781-11.097657c-.5-4.800781-3.5-9.601562-7.902343-12.5zm-3.398438 16.398438c-1.601562 1.5-4 2.402343-6.300781 3-8.398438 2.5-18.097657 3.601562-30.597657 3.402343-11.101562-.203124-21.101562-.5-30.601562-2.703124-2.199219-.5-4.699219-1.199219-6.699219-2.398438-1.699219-1-2.800781-2.398438-3.199219-3.800781-.601562-2.300781.898438-5.398438 3.5-7.300781 6.296876-4.5 17.5-5.097657 25-5.097657h3.898438c10.800781.199219 21.800781 1.898438 32.898438 3.800781 3.300781.597657 6.703124 1.097657 9.402343 2.597657.199219.101562.398438.199219.597657.300781 1.800781 1.199219 3.203124 3.300781 3.300781 5.101562.101562 1.296876-.300781 2.199219-1.199219 3.097657zm0 0"></path></svg>