<!-- icon666.com - MILLIONS OF FREE VECTOR ICONS --><svg version="1.1" id="Capa_1" xmlns="http://www.w3.org/2000/svg" xmlns:xlink="http://www.w3.org/1999/xlink" x="0px" y="0px" viewBox="0 0 512 512" style="enable-background:new 0 0 512 512;" xml:space="preserve"><g><circle style="" cx="448" cy="209.13" r="20" fill="#FFFFFF"></circle><circle style="" cx="64" cy="209.13" r="20" fill="#FFFFFF"></circle></g><path style="fill: rgb(189, 153, 255);" d="M346.293,191.674L346.293,191.674c-49.938-49.938-130.902-49.938-180.84,0l0,0 c-23.981,23.981-56.506,37.453-90.42,37.453H10V475h492V229.127h-65.287C402.799,229.127,370.274,215.655,346.293,191.674z" fill="#99BBFF"></path><path style="fill: rgb(230, 157, 40);" d="M256,229c-35.23,0-66.685,14.461-87.355,33.377c-18.169,16.627-6.533,46.877,18.095,46.877h138.52 c24.629,0,36.264-30.25,18.095-46.877C322.685,243.461,291.23,229,256,229z" fill="#FFC66C"></path><rect x="10" y="37" style="fill: rgb(50, 67, 143);" width="492" height="56" fill="#B3B6C3"></rect><path d="M131,465c-2.63,0-5.21,1.07-7.07,2.93S121,472.37,121,475s1.069,5.21,2.93,7.07S128.37,485,131,485 c2.64,0,5.21-1.07,7.069-2.93c1.87-1.86,2.931-4.44,2.931-7.07s-1.061-5.21-2.931-7.07C136.21,466.07,133.64,465,131,465z" fill="#000000"></path><path d="M69.19,357h-20.4c-5.522,0-10,4.477-10,10v34v34c0,5.523,4.478,10,10,10h20.4c14.888,0,27-12.112,27-27 c0-6.438-2.269-12.355-6.044-17c3.775-4.645,6.044-10.562,6.044-17C96.19,369.112,84.078,357,69.19,357z M58.79,377h10.4 c3.859,0,7,3.14,7,7s-3.141,7-7,7h-10.4V377z M69.19,425h-10.4v-14h10.4c3.859,0,7,3.14,7,7S73.05,425,69.19,425z" fill="#000000"></path><path d="M366.14,357h-20.4c-5.522,0-10,4.477-10,10v34v34c0,5.523,4.478,10,10,10s10-4.477,10-10v-24h10.4c3.859,0,7,3.14,7,7v17 c0,5.523,4.478,10,10,10s10-4.477,10-10v-17c0-6.438-2.269-12.355-6.044-17c3.775-4.645,6.044-10.562,6.044-17 C393.14,369.112,381.027,357,366.14,357z M355.739,391v-14h10.4c3.859,0,7,3.14,7,7s-3.141,7-7,7H355.739z" fill="#000000"></path><path d="M250.108,359.885c-3.928-3.881-10.261-3.841-14.142,0.089l-16.46,16.668V367c0-5.523-4.478-10-10-10s-10,4.477-10,10v33.995 c0,0.003,0,0.007,0,0.01V435c0,5.523,4.478,10,10,10s10-4.477,10-10v-9.642l16.46,16.668c1.956,1.981,4.535,2.974,7.115,2.974 c2.538,0,5.078-0.96,7.026-2.885c3.93-3.88,3.97-10.212,0.089-14.142L223.561,401l26.637-26.974 C254.078,370.097,254.038,363.765,250.108,359.885z" fill="#000000"></path><path d="M170.722,445.003c1.112,0,2.245-0.188,3.353-0.582c5.203-1.852,7.92-7.571,6.068-12.774l-24.2-68 c-1.418-3.985-5.19-6.647-9.421-6.647s-8.003,2.662-9.421,6.647l-24.2,68c-1.852,5.203,0.865,10.922,6.068,12.774 c5.199,1.847,10.922-0.865,12.773-6.068l14.779-41.528l14.779,41.528C162.758,442.448,166.61,445.003,170.722,445.003z" fill="#000000"></path><path d="M311.821,377c5.522,0,10-4.477,10-10s-4.478-10-10-10h-32.194c-5.522,0-10,4.477-10,10v68c0,5.523,4.478,10,10,10h32.194 c5.522,0,10-4.477,10-10s-4.478-10-10-10h-22.194v-14h15.345c5.522,0,10-4.477,10-10s-4.478-10-10-10h-15.345v-14H311.821z" fill="#000000"></path><path d="M441.297,445c5.522,0,10-4.477,10-10v-31.056l20.318-31.526c2.992-4.642,1.654-10.831-2.988-13.823 s-10.83-1.654-13.822,2.988l-13.508,20.958l-13.507-20.958c-2.991-4.642-9.18-5.981-13.822-2.989s-5.98,9.181-2.988,13.823 l20.317,31.526V435C431.297,440.522,435.774,445,441.297,445z" fill="#000000"></path><path d="M350.105,255c-25-22.878-59.301-36-94.105-36s-69.105,13.122-94.105,36c-11.371,10.406-15.118,26.398-9.546,40.741 c5.55,14.284,19.049,23.513,34.392,23.513h138.52c15.343,0,28.842-9.229,34.392-23.513C365.224,281.397,361.477,265.406,350.105,255 z M341.009,288.498c-2.617,6.735-8.504,10.756-15.749,10.756H186.74c-7.245,0-13.132-4.021-15.749-10.756 c-2.038-5.247-1.951-12.927,4.405-18.744c11.104-10.161,24.739-18.159,39.464-23.45l-5.193,5.193 c-3.905,3.905-3.905,10.237,0,14.142c1.953,1.953,4.512,2.929,7.071,2.929s5.118-0.977,7.071-2.929l26.343-26.342 c0.049-0.049,0.09-0.103,0.138-0.153c1.905-0.094,3.809-0.144,5.71-0.144c6.882,0,13.802,0.637,20.637,1.847l-14.185,14.185 c-3.905,3.905-3.905,10.237,0,14.142c1.953,1.953,4.512,2.929,7.071,2.929s5.118-0.977,7.071-2.929l22.242-22.242 c14.075,5.287,27.091,13.054,37.767,22.824C342.96,275.571,343.047,283.251,341.009,288.498z" fill="#000000"></path><path d="M502,103c5.522,0,10-4.477,10-10V37c0-5.523-4.478-10-10-10H10C4.478,27,0,31.477,0,37v56c0,5.523,4.478,10,10,10h44v77.847 c-11.639,4.128-20,15.243-20,28.28c0,3.506,0.61,6.87,1.72,10H10c-5.522,0-10,4.477-10,10V475c0,5.523,4.478,10,10,10h76.19 c5.522,0,10-4.477,10-10s-4.478-10-10-10H20V239.127h55.034c36.827,0,71.449-14.341,97.491-40.382 c45.956-45.958,120.737-45.959,166.697,0c26.04,26.041,60.663,40.382,97.49,40.382H492V465H170.722c-5.522,0-10,4.477-10,10 s4.478,10,10,10H502c5.522,0,10-4.477,10-10V229.127c0-5.523-4.478-10-10-10h-25.72c1.11-3.13,1.72-6.494,1.72-10 c0-13.036-8.361-24.152-20-28.28V103H502z M54,209.127c0-5.514,4.486-10,10-10s10,4.486,10,10s-4.486,10-10,10 S54,214.641,54,209.127z M438,209.127c0-5.514,4.486-10,10-10s10,4.486,10,10s-4.486,10-10,10S438,214.641,438,209.127z M438,180.847c-11.639,4.128-20,15.243-20,28.28c0,3.036,0.457,5.966,1.299,8.73c-24.875-3.661-47.831-15.15-65.935-33.254 c-53.755-53.755-141.224-53.757-194.982,0c-18.039,18.04-40.896,29.51-65.67,33.213c0.835-2.752,1.288-5.668,1.288-8.689 c0-13.036-8.361-24.152-20-28.28V103h148.5c5.522,0,10-4.477,10-10s-4.478-10-10-10H74v-8.013c0-5.523-4.478-10-10-10 s-10,4.477-10,10V83H20V47h472v36h-34v-8.013c0-5.523-4.478-10-10-10s-10,4.477-10,10V83H300c-5.522,0-10,4.477-10,10 s4.478,10,10,10h138V180.847z" fill="#000000"></path><path d="M262,83c-2.63,0-5.2,1.07-7.061,2.93c-1.87,1.86-2.93,4.43-2.93,7.07c0,2.63,1.06,5.21,2.93,7.07 c1.86,1.86,4.431,2.93,7.061,2.93c2.64,0,5.21-1.07,7.069-2.93C270.939,98.21,272,95.63,272,93s-1.061-5.21-2.931-7.07 C267.21,84.07,264.64,83,262,83z" fill="#000000"></path></svg>