<!-- icon666.com - MILLIONS OF FREE VECTOR ICONS --><svg version="1.1" id="Capa_1" xmlns="http://www.w3.org/2000/svg" xmlns:xlink="http://www.w3.org/1999/xlink" x="0px" y="0px" viewBox="0 0 511.999 511.999" style="enable-background:new 0 0 511.999 511.999;" xml:space="preserve"><path style="fill: rgb(255, 140, 46);" d="M358.906,52.172c0,0,85.343-34.137,145.084,93.878c0,0-93.878-42.672-145.084-8.535V52.172z" fill="#FBA761"></path><path style="fill: rgb(250, 112, 0);" d="M358.906,111.204v26.312c51.206-34.138,145.084,8.535,145.084,8.535 c-5.926-12.698-12.105-23.796-18.425-33.495C455.632,102.091,396.048,86.442,358.906,111.204z" fill="#FA892D"></path><path style="fill: rgb(255, 129, 26);" d="M213.822,43.637c10.449-10.634,76.809-42.672,188.326-16.497 c-0.571,16.497-17.64,67.704-0.571,135.978c-51.206-17.068-115.314,24.39-119.481,34.137 C252.513,149.465,229.18,79.478,213.822,43.637z" fill="#FCC496"></path><g><path style="fill: rgb(255, 140, 46);" d="M402.149,27.14c-0.71-0.166-1.411-0.321-2.117-0.483c-0.603,7.041-1.033,14.535-1.185,22.444 C400.502,39.267,401.986,31.81,402.149,27.14z" fill="#FBA761"></path><path style="fill: rgb(255, 140, 46);" d="M265.72,167.584c5.219,10.443,10.681,20.471,16.376,29.671 c4.167-9.747,68.275-51.206,119.481-34.138c-3.074-12.296-5.028-24.028-6.183-35.114 C342.561,118.244,283.12,151.529,265.72,167.584z" fill="#FBA761"></path><path style="fill: rgb(255, 140, 46);" d="M51.669,359.408c0,0-34.137,85.343,93.878,145.084c0,0-42.672-93.878-8.535-145.084L51.669,359.408 L51.669,359.408z" fill="#FBA761"></path></g><path style="fill: rgb(250, 112, 0);" d="M82.47,359.408h-30.8c0,0-34.138,85.343,93.878,145.084c0,0-3.976-8.754-8.529-22.363 C56.022,425.544,82.47,359.408,82.47,359.408z" fill="#FA892D"></path><path style="fill: rgb(255, 129, 26);" d="M43.135,214.324c-10.634,10.45-42.672,76.809-16.497,188.327 c16.497-0.571,67.704-17.64,135.978-0.571c-17.068-51.206,24.39-115.314,34.137-119.481 C148.962,253.015,78.976,229.682,43.135,214.324z" fill="#FCC496"></path><g><path style="fill: rgb(255, 140, 46);" d="M67.83,224.302c-9.262-3.624-17.646-6.958-24.694-9.979C32.502,224.773,0.464,291.132,26.638,402.65 c5.93-0.205,16.363-2.54,30.441-4.656C36.995,307.838,55.088,247.984,67.83,224.302z" fill="#FBA761"></path><path style="fill: rgb(255, 140, 46);" d="M116.569,394.997c14.202,0.86,29.624,2.977,46.046,7.083c-0.657-1.973-1.218-3.966-1.707-5.973 C144.641,394.287,129.752,394.213,116.569,394.997z" fill="#FBA761"></path><path style="fill: rgb(255, 140, 46);" d="M328.646,199.896c-5.223-0.121-88.173,56.11-123.359,142.444 c-69.018-30.224-141.16-70.303-195.071-126.796c4.74-18.345,21.744-75.388,75.59-129.234 c14.428-14.428,60.772-57.897,129.234-75.59C268.501,58.758,310.263,119.159,328.646,199.896z" fill="#FBA761"></path></g><g><path style="fill: rgb(250, 112, 0);" d="M328.646,199.896c-2.137-9.384-4.603-18.483-7.353-27.331c-4.66,0.418-44.397,26.453-84.837,70.906 l21.258,16.614C291.29,222.066,325.359,199.818,328.646,199.896z" fill="#FA892D"></path><path style="fill: rgb(250, 112, 0);" d="M85.807,86.309c-53.846,53.846-70.85,110.89-75.59,129.234 c12.356,12.948,25.679,25.025,39.695,36.327c-5.365-5.02-10.587-10.178-15.648-15.481c4.74-18.344,21.744-75.388,75.59-129.234 c2.264-2.264,5.322-5.249,9.123-8.733l-18.228-26.04C94.163,78.115,89.129,82.988,85.807,86.309z" fill="#FA892D"></path></g><path style="fill: rgb(218, 204, 255);" d="M320.63,223.943L169.535,7.519c-48.147,23.083-80.679,53.783-92.928,66.032 C42.04,108.118,20.868,143.84,8.019,172.114l225.845,149.204C262.411,274.785,295.478,243.577,320.63,223.943z" fill="#F2EDEC"></path><g><path style="fill: rgb(255, 112, 210);" d="M100.654,96.41c11.731-11.731,42.076-40.381,86.915-63.062L169.536,7.518 c-48.148,23.084-80.68,53.784-92.929,66.033c-34.567,34.567-55.74,70.289-68.588,98.563l26.53,17.526 C47.586,162.282,68.226,128.838,100.654,96.41z" fill="#E4DAD8"></path><path style="fill: rgb(255, 112, 210);" d="M169.536,7.519c-19.568,9.381-36.557,20.021-50.652,30.169L294.992,245.97 c9.07-8.559,17.744-15.864,25.639-22.026L169.536,7.519z" fill="#E4DAD8"></path></g><path style="fill: rgb(255, 143, 225);" d="M169.536,7.519c-19.568,9.381-36.557,20.021-50.652,30.169l21.126,24.987 c13.225-9.729,29.176-20.026,47.559-29.324L169.536,7.519z" fill="#D7C8C5"></path><path d="M510.799,142.871c-32.607-69.872-73.239-93.118-103.279-99.86c1.129-6.5,2.004-11.698,2.139-15.612 c0.124-3.584-2.302-6.756-5.792-7.577c-82.769-19.425-138.683-7.119-165.673,2.55c-5.804-5.839-11.837-11.591-18.13-17.245 c-1.873-1.682-4.463-2.317-6.904-1.686c-10.172,2.629-20.379,5.96-30.393,9.901l-7.071-10.128c-2.108-3.021-6.093-4.068-9.41-2.475 c-43.656,20.931-75.753,48.257-94.995,67.494c-6.755,6.756-13.183,13.748-19.306,20.943l-7.627-6.102 c-3.24-2.593-7.97-2.068-10.563,1.173c-2.593,3.24-2.067,7.97,1.173,10.563l7.526,6.021c-16.458,21.126-30.303,43.929-41.32,68.171 c-1.529,3.364-0.385,7.341,2.699,9.378l8.685,5.738c-3.876,9.898-7.107,19.816-9.621,29.54c-0.649,2.516,0.046,5.189,1.84,7.069 c5.533,5.798,11.334,11.501,17.394,17.116C12.211,265.16-0.21,321.153,19.32,404.365c0.8,3.406,3.838,5.797,7.313,5.797 c0.087,0,0.175-0.002,0.264-0.005c3.914-0.135,9.112-1.01,15.611-2.139c6.69,29.807,29.801,70.585,99.862,103.279 c6.201,2.895,12.835-3.712,10.021-9.915c-0.241-0.532-23.268-51.906-20.929-97.497c9.33,1.166,19.117,2.928,29.332,5.482 c5.645,1.406,10.792-4.144,8.953-9.667c-5.513-16.539-4.154-34.185-0.568-49.365c0.028-0.115,0.061-0.229,0.083-0.345 c1.189-4.972,2.612-9.673,4.11-13.979c9.353,4.459,18.976,8.862,28.903,13.209c3.819,1.672,8.402-0.194,9.974-4.047 c3.016-7.4,6.525-14.86,10.444-22.232l7.031,4.645c3.498,2.31,8.358,1.228,10.547-2.341c9.105-14.842,19.178-28.881,30.133-42.088 l9.182,7.345c-9.294,15.197-29.279,49.324-30.295,63.367c-1.415,19.561,13.35,36.628,32.912,38.043 c0.869,0.063,1.732,0.094,2.59,0.094c18.456,0,34.101-14.312,35.452-33.005c0.876-12.105-10.05-40.999-17.574-59.237 c15.924,3.789,38.88,8.595,52.9,8.595c12.217,0,23.551-6.535,29.842-16.98c1.691-2.807,3.001-5.845,3.865-9.008 c4.093-14.989-2.372-31.327-15.535-39.519c-7.981-4.967-17.7-6.583-26.857-4.456c-13.843,3.216-44.885,28.7-58.255,40.096 l-8.384-6.708c13.765-15.242,28.789-29.256,45.011-41.919c3.149-2.458,3.823-6.951,1.537-10.225l-5.069-7.261 c4.676-3.178,7.41-4.67,8.387-5.114c4.089-0.813,6.79-4.971,5.863-9.039c-1.726-7.582-3.674-15.036-5.825-22.377 c16.54-6.399,44.18-13.894,69.052-5.603c5.52,1.84,11.079-3.306,9.667-8.953c-2.554-10.215-4.315-20.002-5.481-29.332 c45.593-2.338,96.958,20.685,97.493,20.928C507.111,155.719,513.682,149.049,510.799,142.871z M305.253,357.918 c-0.817,11.295-10.666,19.826-21.968,19.005c-11.296-0.817-19.823-10.671-19.006-21.968c0.551-7.622,12.79-30.79,24.216-50.096 C297.027,325.605,305.805,350.29,305.253,357.918z M350.284,253.038c7.699-1.786,15.94,1.131,20.821,7.345 c5.684,7.238,5.756,17.666,0.236,25.021c-2.884,3.842-7.083,6.561-11.759,7.648c-7.449,1.732-33.196-3.103-55.019-8.302 C321.853,270.459,342.836,254.768,350.284,253.038z M131.347,488.868c-50.535-27.895-68.408-59.549-73.985-83.323 c15.695-2.406,35.679-4.535,59.13-3.062C114.681,434.677,124.192,468.526,131.347,488.868z M156.628,339.038l-31.144-9.724 c-3.963-1.235-8.176,0.973-9.413,4.934c-1.236,3.962,0.972,8.176,4.934,9.413l32.121,10.03c-0.538,2.906-0.991,5.876-1.338,8.899 l-40.218-1.871c-4.191-0.176-7.663,3.013-7.856,7.158c-0.192,4.146,3.012,7.663,7.158,7.856l40.175,1.869 c0.09,4.789,0.508,9.634,1.345,14.478c-49.277-9.858-89.137-2.923-111.314,0.938c-3.227,0.561-6.116,1.064-8.587,1.441 c-15.664-72.007-5.763-121.817,1.871-145.751c33.913,29.109,75.41,55.801,125.412,80.683 C158.681,332.423,157.617,335.649,156.628,339.038z M201.361,332.386c-79.411-35.473-139.309-74.471-182.785-119.003 c1.911-6.859,4.195-13.814,6.824-20.779l184.706,122.025C206.94,320.51,204.005,326.447,201.361,332.386z M231.587,310.808 L17.567,169.417c10.028-20.949,22.29-40.744,36.652-59.202l204.433,163.546C248.942,285.486,239.904,297.843,231.587,310.808z M295.666,235.128L179.836,98.135c-2.651-3.132-7.613-3.509-10.696-0.795c-3.003,2.644-3.369,7.439-0.782,10.5l116.346,137.602 c-5.581,5.47-10.994,11.113-16.224,16.933L63.723,98.569c5.774-6.766,11.835-13.342,18.197-19.704 c9.016-9.015,20.985-19.883,35.747-30.978l23.152,27.383c2.858,3.379,8.177,3.519,11.214,0.297 c2.586-2.744,2.696-7.124,0.264-10.002l-22.379-26.467c11.107-7.598,23.502-15.103,37.148-21.989l143.364,205.35 C305.389,226.552,300.476,230.784,295.666,235.128z M191.626,26.034c7.079-2.672,14.242-5.017,21.4-6.997 c55.14,50.469,90.173,108.351,106.904,176.654c-1.84,1.071-4.084,2.494-6.815,4.361L191.626,26.034z M375.548,151.496l-4.361-40.576 c-0.437-4.074-4.202-7.104-8.275-6.668c-4.072,0.435-7.105,4.205-6.668,8.275l4.288,39.91c-2.501,0.319-4.973,0.707-7.406,1.161 l-7.607-16.903c-1.704-3.784-6.155-5.47-9.937-3.769c-3.784,1.703-5.472,6.153-3.769,9.937l6.449,14.331 c-4.451,1.316-8.69,2.775-12.651,4.291c-15.918-47.013-41.03-89.037-75.952-127.105c26.479-8.296,74.835-16.533,144.297-1.39 c-0.377,2.472-0.879,5.363-1.441,8.589c-3.86,22.176-10.794,62.032-0.94,111.301C386.215,151.946,380.851,151.523,375.548,151.496z M401.979,116.987c-1.471-23.446,0.657-43.427,3.062-59.12c23.944,5.616,55.508,23.577,83.324,73.983 C468.023,124.693,434.171,115.172,401.979,116.987z" fill="#000000"></path></svg>